PathFileType	4	(X/Y/Z)	 control3min.trc
DataRate	CameraRate	NumFrames	NumMarkers	Units	OrigDataRate	OrigDataStartFrame	OrigNumFrames
200	200	11	35	m	200	126	1000
Frame#	Time	C7			LSH			RSH			MAN			RASI			LASI			HIPR			HIPL			RPSI			LPSI			COX			RTHI1			RTHI2			RTHI3			RTHI4			RSHA1			RSHA2			RSHA3			RSHA4			RHEEL			RMET5			RMET1			RTOE			LTHI1			LTHI2			LTHI3			LTHI4			LSHA1			LSHA2			LSHA3			LSHA4			LHEEL			LMET5			LMET1			LTOE			
		X1	Y1	Z1	X2	Y2	Z2	X3	Y3	Z3	X4	Y4	Z4	X5	Y5	Z5	X6	Y6	Z6	X7	Y7	Z7	X8	Y8	Z8	X9	Y9	Z9	X10	Y10	Z10	X11	Y11	Z11	X12	Y12	Z12	X13	Y13	Z13	X14	Y14	Z14	X15	Y15	Z15	X16	Y16	Z16	X17	Y17	Z17	X18	Y18	Z18	X19	Y19	Z19	X20	Y20	Z20	X21	Y21	Z21	X22	Y22	Z22	X23	Y23	Z23	X24	Y24	Z24	X25	Y25	Z25	X26	Y26	Z26	X27	Y27	Z27	X28	Y28	Z28	X29	Y29	Z29	X30	Y30	Z30	X31	Y31	Z31	X32	Y32	Z32	X33	Y33	Z33	X34	Y34	Z34	X35	Y35	Z35	
126	0.6300	-0.252491	1.635032	-0.519043	-0.201580	1.620504	-0.741482	-0.196250	1.614464	-0.316625	-0.108590	1.577830	-0.524482	-0.124073	1.122690	-0.408048	-0.103885	1.119108	-0.621381	-0.173350	1.179393	-0.365814	-0.158947	1.179227	-0.686313	-0.300170	1.165227	-0.473561	-0.295501	1.160610	-0.587937	-0.305393	1.171518	-0.526659	-0.218084	0.869439	-0.332644	-0.200428	0.814534	-0.317222	-0.138197	0.833675	-0.310829	-0.148842	0.892153	-0.326936	-0.294851	0.408340	-0.321619	-0.295057	0.367427	-0.334339	-0.236463	0.369149	-0.317866	-0.239124	0.408345	-0.309702	-0.368404	0.090892	-0.414230	-0.213471	0.028081	-0.304634	-0.152027	0.042123	-0.379550	-0.124315	0.030769	-0.371495	-0.147742	0.867547	-0.735416	-0.131126	0.808574	-0.742589	-0.070823	0.817345	-0.722399	-0.078467	0.876706	-0.713031	-0.218676	0.408469	-0.758029	-0.236944	0.372362	-0.757391	-0.179812	0.351055	-0.741949	-0.168412	0.393697	-0.744929	-0.364118	0.099335	-0.700036	-0.194926	0.027462	-0.769322	-0.143129	0.038450	-0.687622	-0.115832	0.029523	-0.693187	
127	0.6350	-0.251985	1.629094	-0.518765	-0.200702	1.613824	-0.741688	-0.195675	1.607716	-0.316182	-0.108007	1.571295	-0.524222	-0.125238	1.116265	-0.407991	-0.104583	1.112803	-0.621437	-0.174614	1.172582	-0.365666	-0.159581	1.172346	-0.686630	-0.301239	1.158581	-0.474099	-0.296390	1.153889	-0.588440	-0.306294	1.164809	-0.527182	-0.217576	0.863076	-0.332354	-0.199403	0.808423	-0.316611	-0.137422	0.828301	-0.309910	-0.148615	0.886594	-0.326330	-0.292557	0.404405	-0.320923	-0.293339	0.363485	-0.333698	-0.234702	0.364360	-0.317369	-0.236770	0.403529	-0.309263	-0.369761	0.086238	-0.414881	-0.213600	0.027797	-0.304102	-0.152105	0.041998	-0.379726	-0.124182	0.030677	-0.371619	-0.146945	0.861407	-0.735766	-0.129790	0.802523	-0.743041	-0.069479	0.811821	-0.723102	-0.077580	0.871119	-0.713662	-0.216683	0.403763	-0.758338	-0.235431	0.367876	-0.757771	-0.178656	0.345821	-0.742094	-0.166666	0.388317	-0.745036	-0.365953	0.095014	-0.700574	-0.195052	0.027019	-0.770293	-0.143473	0.038349	-0.687375	-0.115992	0.029415	-0.692861	
128	0.6400	-0.251495	1.623149	-0.518558	-0.199886	1.607080	-0.741916	-0.195173	1.601011	-0.315780	-0.107413	1.564708	-0.523970	-0.126443	1.109788	-0.407957	-0.105293	1.106425	-0.621532	-0.175993	1.165720	-0.365518	-0.160248	1.165399	-0.686967	-0.302340	1.151857	-0.474665	-0.297307	1.147080	-0.588956	-0.307210	1.158030	-0.527747	-0.217141	0.856780	-0.331968	-0.198472	0.802382	-0.315909	-0.136738	0.822958	-0.308918	-0.148464	0.881071	-0.325652	-0.290074	0.400401	-0.320200	-0.291387	0.359449	-0.333029	-0.232722	0.359621	-0.316753	-0.234271	0.398752	-0.308768	-0.370855	0.081745	-0.415481	-0.213641	0.027497	-0.303466	-0.152093	0.041898	-0.379767	-0.123935	0.030604	-0.371622	-0.146168	0.855232	-0.736186	-0.128458	0.796438	-0.743506	-0.068185	0.806285	-0.723769	-0.076751	0.865524	-0.714322	-0.214466	0.399160	-0.758642	-0.233632	0.363459	-0.758171	-0.177181	0.340754	-0.742252	-0.164680	0.383120	-0.745132	-0.367511	0.090770	-0.700970	-0.195032	0.026609	-0.771232	-0.143658	0.038238	-0.687146	-0.115986	0.029295	-0.692564	
129	0.6450	-0.251028	1.617200	-0.518432	-0.199122	1.600308	-0.742159	-0.194740	1.594332	-0.315436	-0.106801	1.558072	-0.523724	-0.127686	1.103294	-0.407952	-0.106020	1.099996	-0.621672	-0.177489	1.158854	-0.365367	-0.160953	1.158427	-0.687320	-0.303482	1.145075	-0.475252	-0.298255	1.140214	-0.589480	-0.308131	1.151218	-0.528327	-0.216784	0.850579	-0.331531	-0.197653	0.796431	-0.315157	-0.136180	0.817675	-0.307870	-0.148391	0.875609	-0.324889	-0.287470	0.396308	-0.319482	-0.289246	0.355336	-0.332367	-0.230552	0.354936	-0.316092	-0.231672	0.394014	-0.308223	-0.371760	0.077530	-0.416088	-0.213660	0.027266	-0.302918	-0.152063	0.041821	-0.379742	-0.123682	0.030546	-0.371539	-0.145429	0.849056	-0.736672	-0.127166	0.790346	-0.744009	-0.066973	0.800762	-0.724417	-0.076016	0.859938	-0.715000	-0.212072	0.394642	-0.758932	-0.231584	0.359105	-0.758548	-0.175430	0.335836	-0.742394	-0.162491	0.378082	-0.745213	-0.368817	0.086699	-0.701135	-0.194948	0.026251	-0.772075	-0.143735	0.038125	-0.686931	-0.115873	0.029171	-0.692302	
130	0.6500	-0.250604	1.611255	-0.518387	-0.198418	1.593560	-0.742415	-0.194400	1.587708	-0.315165	-0.106165	1.551364	-0.523492	-0.128962	1.096806	-0.407977	-0.106770	1.093532	-0.621861	-0.179094	1.152020	-0.365223	-0.161699	1.151473	-0.687687	-0.304670	1.138289	-0.475864	-0.299239	1.133341	-0.590005	-0.309063	1.144419	-0.528920	-0.216499	0.844498	-0.331083	-0.196937	0.790596	-0.314402	-0.135743	0.812449	-0.306734	-0.148401	0.870233	-0.324021	-0.284799	0.392147	-0.318750	-0.286950	0.351180	-0.331727	-0.228221	0.350332	-0.315422	-0.229015	0.389340	-0.307632	-0.372551	0.073700	-0.416735	-0.213724	0.027119	-0.302561	-0.152065	0.041772	-0.379725	-0.123502	0.030501	-0.371412	-0.144741	0.842912	-0.737216	-0.125943	0.784285	-0.744571	-0.065843	0.795284	-0.725083	-0.075388	0.854384	-0.715703	-0.209553	0.390175	-0.759163	-0.229366	0.354797	-0.758846	-0.173481	0.331043	-0.742435	-0.160166	0.373187	-0.745236	-0.369909	0.082878	-0.700998	-0.194859	0.025970	-0.772746	-0.143742	0.038022	-0.686733	-0.115704	0.029055	-0.692090	
131	0.6550	-0.250238	1.605315	-0.518409	-0.197795	1.586883	-0.742671	-0.194176	1.581165	-0.314961	-0.105490	1.544606	-0.523271	-0.130268	1.090360	-0.408042	-0.107550	1.087060	-0.622100	-0.180804	1.145255	-0.365082	-0.162487	1.144572	-0.688065	-0.305898	1.131564	-0.476520	-0.300267	1.126509	-0.590516	-0.310008	1.137728	-0.529516	-0.216269	0.838539	-0.330658	-0.196314	0.784896	-0.313677	-0.135421	0.807317	-0.305505	-0.148482	0.864979	-0.323048	-0.282079	0.387999	-0.317972	-0.284521	0.347054	-0.331119	-0.225743	0.345861	-0.314834	-0.226303	0.384796	-0.307004	-0.373263	0.070331	-0.417415	-0.213894	0.027055	-0.302360	-0.152141	0.041742	-0.379753	-0.123452	0.030469	-0.371273	-0.144105	0.836842	-0.737801	-0.124806	0.778295	-0.745194	-0.064786	0.789876	-0.725797	-0.074851	0.848886	-0.716452	-0.206968	0.385752	-0.759309	-0.227055	0.350506	-0.759006	-0.171427	0.326348	-0.742312	-0.157773	0.368394	-0.745155	-0.370818	0.079344	-0.700517	-0.194807	0.025775	-0.773205	-0.143704	0.037934	-0.686542	-0.115512	0.028950	-0.691935	
132	0.6600	-0.249951	1.599395	-0.518477	-0.197265	1.580337	-0.742917	-0.194091	1.574746	-0.314815	-0.104766	1.537821	-0.523060	-0.131621	1.083995	-0.408147	-0.108365	1.080607	-0.622387	-0.182700	1.138613	-0.364893	-0.163317	1.137764	-0.688455	-0.307159	1.124989	-0.477214	-0.301335	1.119809	-0.591012	-0.310973	1.131244	-0.530112	-0.216078	0.832747	-0.330272	-0.195752	0.779360	-0.313005	-0.135183	0.802345	-0.304192	-0.148630	0.859898	-0.321988	-0.279270	0.383972	-0.317111	-0.281922	0.343073	-0.330519	-0.223099	0.341606	-0.314340	-0.223492	0.380473	-0.306337	-0.373902	0.067505	-0.418120	-0.214163	0.027066	-0.302325	-0.152284	0.041725	-0.379826	-0.123530	0.030448	-0.371133	-0.143516	0.830890	-0.738406	-0.123749	0.772415	-0.745854	-0.063789	0.784564	-0.726584	-0.074369	0.843477	-0.717259	-0.204360	0.381359	-0.759342	-0.224711	0.346252	-0.758996	-0.169339	0.321719	-0.741992	-0.155364	0.363658	-0.744947	-0.371573	0.076096	-0.699653	-0.194812	0.025678	-0.773448	-0.143640	0.037864	-0.686368	-0.115318	0.028862	-0.691852	
133	0.6650	-0.249753	1.593525	-0.518561	-0.196850	1.573969	-0.743141	-0.194149	1.568488	-0.314705	-0.103992	1.531045	-0.522860	-0.133022	1.077755	-0.408293	-0.109222	1.074214	-0.622717	-0.184577	1.132068	-0.364786	-0.164187	1.131081	-0.688861	-0.308449	1.118669	-0.477945	-0.302439	1.113341	-0.591495	-0.311953	1.125075	-0.530720	-0.215911	0.827152	-0.329941	-0.195209	0.774023	-0.312379	-0.134987	0.797609	-0.302821	-0.148829	0.855048	-0.320878	-0.276295	0.380209	-0.316165	-0.279105	0.339407	-0.329861	-0.220236	0.337698	-0.313860	-0.220501	0.376501	-0.305604	-0.374423	0.065305	-0.418814	-0.214494	0.027165	-0.302444	-0.152459	0.041714	-0.379908	-0.123683	0.030434	-0.370990	-0.142962	0.825106	-0.739007	-0.122753	0.766685	-0.746513	-0.062803	0.779403	-0.727447	-0.073900	0.838208	-0.718129	-0.201751	0.377009	-0.759222	-0.222374	0.342066	-0.758785	-0.167266	0.317169	-0.741463	-0.152960	0.358987	-0.744587	-0.372183	0.073165	-0.698441	-0.194879	0.025669	-0.773495	-0.143553	0.037806	-0.686216	-0.115123	0.028799	-0.691844	
134	0.6700	-0.249635	1.587774	-0.518630	-0.196581	1.567834	-0.743328	-0.194355	1.562450	-0.314598	-0.103186	1.524353	-0.522670	-0.134470	1.071679	-0.408482	-0.110131	1.067929	-0.623088	-0.186424	1.125671	-0.364776	-0.165103	1.124552	-0.689283	-0.309753	1.112712	-0.478731	-0.303563	1.107203	-0.591967	-0.312948	1.119317	-0.531351	-0.215743	0.821798	-0.329654	-0.194641	0.768923	-0.311799	-0.134795	0.793152	-0.301428	-0.149064	0.850472	-0.319755	-0.273063	0.376873	-0.315165	-0.276005	0.336199	-0.329116	-0.217100	0.334240	-0.313333	-0.217241	0.372991	-0.304784	-0.374757	0.063813	-0.419423	-0.214845	0.027261	-0.302598	-0.152612	0.041705	-0.379963	-0.123829	0.030429	-0.370851	-0.142425	0.819546	-0.739582	-0.121784	0.761160	-0.747129	-0.061791	0.774458	-0.728357	-0.073415	0.833146	-0.719047	-0.199129	0.372785	-0.758918	-0.220053	0.338026	-0.758356	-0.165213	0.312755	-0.740730	-0.150557	0.354441	-0.744063	-0.372651	0.070584	-0.696968	-0.194989	0.025727	-0.773389	-0.143433	0.037756	-0.686092	-0.114916	0.028754	-0.691907	
135	0.6750	-0.249567	1.582212	-0.518663	-0.196466	1.561983	-0.743466	-0.194681	1.556670	-0.314477	-0.102380	1.517861	-0.522484	-0.135963	1.065820	-0.408710	-0.111103	1.061807	-0.623500	-0.188236	1.119480	-0.364866	-0.166071	1.118218	-0.689721	-0.311052	1.107189	-0.479566	-0.304694	1.101479	-0.592440	-0.313957	1.114042	-0.532008	-0.215539	0.816728	-0.329393	-0.193996	0.764109	-0.311262	-0.134551	0.789064	-0.300080	-0.149300	0.846226	-0.318672	-0.269494	0.374134	-0.314089	-0.272598	0.333582	-0.328284	-0.213672	0.331322	-0.312714	-0.213646	0.370040	-0.303856	-0.374810	0.063047	-0.419919	-0.215104	0.027318	-0.302670	-0.152666	0.041698	-0.379955	-0.123872	0.030430	-0.370711	-0.141888	0.814273	-0.740112	-0.120821	0.755904	-0.747672	-0.060776	0.769777	-0.729256	-0.072906	0.828360	-0.719971	-0.196487	0.368813	-0.758426	-0.217730	0.334246	-0.757723	-0.163162	0.308579	-0.739847	-0.148134	0.350117	-0.743381	-0.372978	0.068388	-0.695322	-0.195125	0.025826	-0.773179	-0.143276	0.037712	-0.686002	-0.114692	0.028728	-0.692031	
136	0.6800	-0.249511	1.576942	-0.518661	-0.196510	1.556469	-0.743560	-0.195088	1.551192	-0.314339	-0.101630	1.511689	-0.522299	-0.137483	1.060232	-0.408963	-0.112149	1.055909	-0.623949	-0.190013	1.113563	-0.365047	-0.167103	1.112125	-0.690169	-0.312337	1.102126	-0.480421	-0.305806	1.096236	-0.592945	-0.314985	1.109234	-0.532692	-0.215250	0.811983	-0.329129	-0.193201	0.759636	-0.310733	-0.134168	0.785400	-0.298813	-0.149493	0.842353	-0.317681	-0.265581	0.372100	-0.312955	-0.268923	0.331665	-0.327332	-0.210004	0.328989	-0.311923	-0.209725	0.367690	-0.302787	-0.374522	0.062962	-0.420346	-0.215195	0.027320	-0.302665	-0.152550	0.041696	-0.379852	-0.123720	0.030433	-0.370557	-0.141332	0.809347	-0.740585	-0.119843	0.751004	-0.748141	-0.059771	0.765442	-0.730093	-0.072379	0.823933	-0.720838	-0.193812	0.365234	-0.757756	-0.215382	0.330885	-0.756932	-0.161082	0.304785	-0.738889	-0.145668	0.346163	-0.742590	-0.373151	0.066609	-0.693611	-0.195263	0.025949	-0.772908	-0.143079	0.037668	-0.685938	-0.114443	0.028711	-0.692191	
